<svg width="86" height="111" viewBox="0 0 86 111" fill="none" xmlns="http://www.w3.org/2000/svg">
<g opacity="0.3">
<mask id="mask0_13_6414" style="mask-type:alpha" maskUnits="userSpaceOnUse" x="0" y="0" width="11" height="11">
<path d="M5.22838 10.542C8.11594 10.542 10.4568 8.30846 10.4568 5.55332C10.4568 2.79817 8.11594 0.564697 5.22838 0.564697C2.34082 0.564697 0 2.79817 0 5.55332C0 8.30846 2.34082 10.542 5.22838 10.542Z" fill="url(#paint0_linear_13_6414)"/>
</mask>
<g mask="url(#mask0_13_6414)">
<path d="M5.22838 10.542C8.11594 10.542 10.4568 8.30846 10.4568 5.55332C10.4568 2.79817 8.11594 0.564697 5.22838 0.564697C2.34082 0.564697 0 2.79817 0 5.55332C0 8.30846 2.34082 10.542 5.22838 10.542Z" fill="url(#paint1_linear_13_6414)"/>
</g>
<mask id="mask1_13_6414" style="mask-type:alpha" maskUnits="userSpaceOnUse" x="30" y="0" width="11" height="11">
<path d="M35.5094 10.542C38.397 10.542 40.7378 8.30846 40.7378 5.55332C40.7378 2.79817 38.397 0.564697 35.5094 0.564697C32.6218 0.564697 30.281 2.79817 30.281 5.55332C30.281 8.30846 32.6218 10.542 35.5094 10.542Z" fill="url(#paint2_linear_13_6414)"/>
</mask>
<g mask="url(#mask1_13_6414)">
<path d="M35.5094 10.542C38.397 10.542 40.7378 8.30846 40.7378 5.55332C40.7378 2.79817 38.397 0.564697 35.5094 0.564697C32.6218 0.564697 30.281 2.79817 30.281 5.55332C30.281 8.30846 32.6218 10.542 35.5094 10.542Z" fill="url(#paint3_linear_13_6414)"/>
</g>
<mask id="mask2_13_6414" style="mask-type:alpha" maskUnits="userSpaceOnUse" x="60" y="0" width="12" height="11">
<path d="M65.7904 10.542C68.678 10.542 71.0188 8.30846 71.0188 5.55332C71.0188 2.79817 68.678 0.564697 65.7904 0.564697C62.9028 0.564697 60.562 2.79817 60.562 5.55332C60.562 8.30846 62.9028 10.542 65.7904 10.542Z" fill="url(#paint4_linear_13_6414)"/>
</mask>
<g mask="url(#mask2_13_6414)">
<path d="M65.7904 10.542C68.678 10.542 71.0188 8.30846 71.0188 5.55332C71.0188 2.79817 68.678 0.564697 65.7904 0.564697C62.9028 0.564697 60.562 2.79817 60.562 5.55332C60.562 8.30846 62.9028 10.542 65.7904 10.542Z" fill="url(#paint5_linear_13_6414)"/>
</g>
<mask id="mask3_13_6414" style="mask-type:alpha" maskUnits="userSpaceOnUse" x="0" y="25" width="11" height="11">
<path d="M5.22838 35.589C8.11594 35.589 10.4568 33.3556 10.4568 30.6004C10.4568 27.8453 8.11594 25.6118 5.22838 25.6118C2.34082 25.6118 0 27.8453 0 30.6004C0 33.3556 2.34082 35.589 5.22838 35.589Z" fill="url(#paint6_linear_13_6414)"/>
</mask>
<g mask="url(#mask3_13_6414)">
<path d="M5.22838 35.589C8.11594 35.589 10.4568 33.3556 10.4568 30.6004C10.4568 27.8453 8.11594 25.6118 5.22838 25.6118C2.34082 25.6118 0 27.8453 0 30.6004C0 33.3556 2.34082 35.589 5.22838 35.589Z" fill="url(#paint7_linear_13_6414)"/>
</g>
<mask id="mask4_13_6414" style="mask-type:alpha" maskUnits="userSpaceOnUse" x="30" y="25" width="11" height="11">
<path d="M35.5094 35.589C38.397 35.589 40.7378 33.3556 40.7378 30.6004C40.7378 27.8453 38.397 25.6118 35.5094 25.6118C32.6218 25.6118 30.281 27.8453 30.281 30.6004C30.281 33.3556 32.6218 35.589 35.5094 35.589Z" fill="url(#paint8_linear_13_6414)"/>
</mask>
<g mask="url(#mask4_13_6414)">
<path d="M35.5094 35.589C38.397 35.589 40.7378 33.3556 40.7378 30.6004C40.7378 27.8453 38.397 25.6118 35.5094 25.6118C32.6218 25.6118 30.281 27.8453 30.281 30.6004C30.281 33.3556 32.6218 35.589 35.5094 35.589Z" fill="url(#paint9_linear_13_6414)"/>
</g>
<mask id="mask5_13_6414" style="mask-type:alpha" maskUnits="userSpaceOnUse" x="60" y="25" width="12" height="11">
<path d="M65.7904 35.589C68.678 35.589 71.0188 33.3556 71.0188 30.6004C71.0188 27.8453 68.678 25.6118 65.7904 25.6118C62.9028 25.6118 60.562 27.8453 60.562 30.6004C60.562 33.3556 62.9028 35.589 65.7904 35.589Z" fill="url(#paint10_linear_13_6414)"/>
</mask>
<g mask="url(#mask5_13_6414)">
<path d="M65.7904 35.589C68.678 35.589 71.0188 33.3556 71.0188 30.6004C71.0188 27.8453 68.678 25.6118 65.7904 25.6118C62.9028 25.6118 60.562 27.8453 60.562 30.6004C60.562 33.3556 62.9028 35.589 65.7904 35.589Z" fill="url(#paint11_linear_13_6414)"/>
</g>
<mask id="mask6_13_6414" style="mask-type:alpha" maskUnits="userSpaceOnUse" x="0" y="50" width="11" height="11">
<path d="M5.22838 60.5842C8.11594 60.5842 10.4568 58.3507 10.4568 55.5956C10.4568 52.8404 8.11594 50.6069 5.22838 50.6069C2.34082 50.6069 0 52.8404 0 55.5956C0 58.3507 2.34082 60.5842 5.22838 60.5842Z" fill="url(#paint12_linear_13_6414)"/>
</mask>
<g mask="url(#mask6_13_6414)">
<path d="M5.22838 60.5842C8.11594 60.5842 10.4568 58.3507 10.4568 55.5956C10.4568 52.8404 8.11594 50.6069 5.22838 50.6069C2.34082 50.6069 0 52.8404 0 55.5956C0 58.3507 2.34082 60.5842 5.22838 60.5842Z" fill="url(#paint13_linear_13_6414)"/>
</g>
<mask id="mask7_13_6414" style="mask-type:alpha" maskUnits="userSpaceOnUse" x="30" y="50" width="11" height="11">
<path d="M35.5094 60.5842C38.397 60.5842 40.7378 58.3507 40.7378 55.5956C40.7378 52.8404 38.397 50.6069 35.5094 50.6069C32.6218 50.6069 30.281 52.8404 30.281 55.5956C30.281 58.3507 32.6218 60.5842 35.5094 60.5842Z" fill="url(#paint14_linear_13_6414)"/>
</mask>
<g mask="url(#mask7_13_6414)">
<path d="M35.5094 60.5842C38.397 60.5842 40.7378 58.3507 40.7378 55.5956C40.7378 52.8404 38.397 50.6069 35.5094 50.6069C32.6218 50.6069 30.281 52.8404 30.281 55.5956C30.281 58.3507 32.6218 60.5842 35.5094 60.5842Z" fill="url(#paint15_linear_13_6414)"/>
</g>
<mask id="mask8_13_6414" style="mask-type:alpha" maskUnits="userSpaceOnUse" x="60" y="50" width="12" height="11">
<path d="M65.7904 60.5842C68.678 60.5842 71.0188 58.3507 71.0188 55.5956C71.0188 52.8404 68.678 50.6069 65.7904 50.6069C62.9028 50.6069 60.562 52.8404 60.562 55.5956C60.562 58.3507 62.9028 60.5842 65.7904 60.5842Z" fill="url(#paint16_linear_13_6414)"/>
</mask>
<g mask="url(#mask8_13_6414)">
<path d="M65.7904 60.5842C68.678 60.5842 71.0188 58.3507 71.0188 55.5956C71.0188 52.8404 68.678 50.6069 65.7904 50.6069C62.9028 50.6069 60.562 52.8404 60.562 55.5956C60.562 58.3507 62.9028 60.5842 65.7904 60.5842Z" fill="url(#paint17_linear_13_6414)"/>
</g>
<mask id="mask9_13_6414" style="mask-type:alpha" maskUnits="userSpaceOnUse" x="0" y="75" width="11" height="11">
<path d="M5.22838 85.6314C8.11594 85.6314 10.4568 83.3978 10.4568 80.6427C10.4568 77.8875 8.11594 75.6541 5.22838 75.6541C2.34082 75.6541 0 77.8875 0 80.6427C0 83.3978 2.34082 85.6314 5.22838 85.6314Z" fill="url(#paint18_linear_13_6414)"/>
</mask>
<g mask="url(#mask9_13_6414)">
<path d="M5.22838 85.6314C8.11594 85.6314 10.4568 83.3978 10.4568 80.6427C10.4568 77.8875 8.11594 75.6541 5.22838 75.6541C2.34082 75.6541 0 77.8875 0 80.6427C0 83.3978 2.34082 85.6314 5.22838 85.6314Z" fill="url(#paint19_linear_13_6414)"/>
</g>
<mask id="mask10_13_6414" style="mask-type:alpha" maskUnits="userSpaceOnUse" x="30" y="75" width="11" height="11">
<path d="M35.5094 85.6314C38.397 85.6314 40.7378 83.3978 40.7378 80.6427C40.7378 77.8875 38.397 75.6541 35.5094 75.6541C32.6218 75.6541 30.281 77.8875 30.281 80.6427C30.281 83.3978 32.6218 85.6314 35.5094 85.6314Z" fill="url(#paint20_linear_13_6414)"/>
</mask>
<g mask="url(#mask10_13_6414)">
<path d="M35.5094 85.6314C38.397 85.6314 40.7378 83.3978 40.7378 80.6427C40.7378 77.8875 38.397 75.6541 35.5094 75.6541C32.6218 75.6541 30.281 77.8875 30.281 80.6427C30.281 83.3978 32.6218 85.6314 35.5094 85.6314Z" fill="url(#paint21_linear_13_6414)"/>
</g>
<mask id="mask11_13_6414" style="mask-type:alpha" maskUnits="userSpaceOnUse" x="60" y="75" width="12" height="11">
<path d="M65.7904 85.6314C68.678 85.6314 71.0188 83.3978 71.0188 80.6427C71.0188 77.8875 68.678 75.6541 65.7904 75.6541C62.9028 75.6541 60.562 77.8875 60.562 80.6427C60.562 83.3978 62.9028 85.6314 65.7904 85.6314Z" fill="url(#paint22_linear_13_6414)"/>
</mask>
<g mask="url(#mask11_13_6414)">
<path d="M65.7904 85.6314C68.678 85.6314 71.0188 83.3978 71.0188 80.6427C71.0188 77.8875 68.678 75.6541 65.7904 75.6541C62.9028 75.6541 60.562 77.8875 60.562 80.6427C60.562 83.3978 62.9028 85.6314 65.7904 85.6314Z" fill="url(#paint23_linear_13_6414)"/>
</g>
<mask id="mask12_13_6414" style="mask-type:alpha" maskUnits="userSpaceOnUse" x="0" y="100" width="11" height="11">
<path d="M5.22838 110.626C8.11594 110.626 10.4568 108.393 10.4568 105.638C10.4568 102.883 8.11594 100.649 5.22838 100.649C2.34082 100.649 0 102.883 0 105.638C0 108.393 2.34082 110.626 5.22838 110.626Z" fill="url(#paint24_linear_13_6414)"/>
</mask>
<g mask="url(#mask12_13_6414)">
<path d="M5.22838 110.626C8.11594 110.626 10.4568 108.393 10.4568 105.638C10.4568 102.883 8.11594 100.649 5.22838 100.649C2.34082 100.649 0 102.883 0 105.638C0 108.393 2.34082 110.626 5.22838 110.626Z" fill="url(#paint25_linear_13_6414)"/>
</g>
<mask id="mask13_13_6414" style="mask-type:alpha" maskUnits="userSpaceOnUse" x="30" y="100" width="11" height="11">
<path d="M35.5094 110.626C38.397 110.626 40.7378 108.393 40.7378 105.638C40.7378 102.883 38.397 100.649 35.5094 100.649C32.6218 100.649 30.281 102.883 30.281 105.638C30.281 108.393 32.6218 110.626 35.5094 110.626Z" fill="url(#paint26_linear_13_6414)"/>
</mask>
<g mask="url(#mask13_13_6414)">
<path d="M35.5094 110.626C38.397 110.626 40.7378 108.393 40.7378 105.638C40.7378 102.883 38.397 100.649 35.5094 100.649C32.6218 100.649 30.281 102.883 30.281 105.638C30.281 108.393 32.6218 110.626 35.5094 110.626Z" fill="url(#paint27_linear_13_6414)"/>
</g>
<mask id="mask14_13_6414" style="mask-type:alpha" maskUnits="userSpaceOnUse" x="60" y="100" width="12" height="11">
<path d="M65.7904 110.626C68.678 110.626 71.0188 108.393 71.0188 105.638C71.0188 102.883 68.678 100.649 65.7904 100.649C62.9028 100.649 60.562 102.883 60.562 105.638C60.562 108.393 62.9028 110.626 65.7904 110.626Z" fill="url(#paint28_linear_13_6414)"/>
</mask>
<g mask="url(#mask14_13_6414)">
<path d="M65.7904 110.626C68.678 110.626 71.0188 108.393 71.0188 105.638C71.0188 102.883 68.678 100.649 65.7904 100.649C62.9028 100.649 60.562 102.883 60.562 105.638C60.562 108.393 62.9028 110.626 65.7904 110.626Z" fill="url(#paint29_linear_13_6414)"/>
</g>
</g>
<defs>
<linearGradient id="paint0_linear_13_6414" x1="54.996" y1="126.068" x2="-11.1481" y2="-49.9057" gradientUnits="userSpaceOnUse">
<stop/>
<stop offset="1" stop-color="white"/>
</linearGradient>
<linearGradient id="paint1_linear_13_6414" x1="54.996" y1="126.068" x2="-11.1481" y2="-49.9057" gradientUnits="userSpaceOnUse">
<stop stop-color="#97C3F9"/>
<stop offset="1" stop-color="#93C1F9"/>
</linearGradient>
<linearGradient id="paint2_linear_13_6414" x1="81.2005" y1="116.218" x2="15.0564" y2="-59.7551" gradientUnits="userSpaceOnUse">
<stop/>
<stop offset="1" stop-color="white"/>
</linearGradient>
<linearGradient id="paint3_linear_13_6414" x1="81.2005" y1="116.218" x2="15.0564" y2="-59.7551" gradientUnits="userSpaceOnUse">
<stop stop-color="#97C3F9"/>
<stop offset="1" stop-color="#93C1F9"/>
</linearGradient>
<linearGradient id="paint4_linear_13_6414" x1="107.405" y1="106.369" x2="41.2608" y2="-69.6044" gradientUnits="userSpaceOnUse">
<stop/>
<stop offset="1" stop-color="white"/>
</linearGradient>
<linearGradient id="paint5_linear_13_6414" x1="107.405" y1="106.369" x2="41.2608" y2="-69.6044" gradientUnits="userSpaceOnUse">
<stop stop-color="#97C3F9"/>
<stop offset="1" stop-color="#93C1F9"/>
</linearGradient>
<linearGradient id="paint6_linear_13_6414" x1="46.0538" y1="129.428" x2="-20.0891" y2="-46.5437" gradientUnits="userSpaceOnUse">
<stop/>
<stop offset="1" stop-color="white"/>
</linearGradient>
<linearGradient id="paint7_linear_13_6414" x1="46.0538" y1="129.428" x2="-20.0891" y2="-46.5437" gradientUnits="userSpaceOnUse">
<stop stop-color="#97C3F9"/>
<stop offset="1" stop-color="#93C1F9"/>
</linearGradient>
<linearGradient id="paint8_linear_13_6414" x1="72.258" y1="119.578" x2="6.11517" y2="-56.3936" gradientUnits="userSpaceOnUse">
<stop/>
<stop offset="1" stop-color="white"/>
</linearGradient>
<linearGradient id="paint9_linear_13_6414" x1="72.258" y1="119.578" x2="6.11517" y2="-56.3936" gradientUnits="userSpaceOnUse">
<stop stop-color="#97C3F9"/>
<stop offset="1" stop-color="#93C1F9"/>
</linearGradient>
<linearGradient id="paint10_linear_13_6414" x1="98.4623" y1="109.729" x2="32.3194" y2="-66.243" gradientUnits="userSpaceOnUse">
<stop/>
<stop offset="1" stop-color="white"/>
</linearGradient>
<linearGradient id="paint11_linear_13_6414" x1="98.4623" y1="109.729" x2="32.3194" y2="-66.243" gradientUnits="userSpaceOnUse">
<stop stop-color="#97C3F9"/>
<stop offset="1" stop-color="#93C1F9"/>
</linearGradient>
<linearGradient id="paint12_linear_13_6414" x1="37.1113" y1="132.79" x2="-29.0327" y2="-43.1831" gradientUnits="userSpaceOnUse">
<stop/>
<stop offset="1" stop-color="white"/>
</linearGradient>
<linearGradient id="paint13_linear_13_6414" x1="37.1113" y1="132.79" x2="-29.0327" y2="-43.1831" gradientUnits="userSpaceOnUse">
<stop stop-color="#97C3F9"/>
<stop offset="1" stop-color="#93C1F9"/>
</linearGradient>
<linearGradient id="paint14_linear_13_6414" x1="63.3157" y1="122.94" x2="-2.82837" y2="-53.0328" gradientUnits="userSpaceOnUse">
<stop/>
<stop offset="1" stop-color="white"/>
</linearGradient>
<linearGradient id="paint15_linear_13_6414" x1="63.3157" y1="122.94" x2="-2.82837" y2="-53.0328" gradientUnits="userSpaceOnUse">
<stop stop-color="#97C3F9"/>
<stop offset="1" stop-color="#93C1F9"/>
</linearGradient>
<linearGradient id="paint16_linear_13_6414" x1="89.5199" y1="113.091" x2="23.376" y2="-62.8823" gradientUnits="userSpaceOnUse">
<stop/>
<stop offset="1" stop-color="white"/>
</linearGradient>
<linearGradient id="paint17_linear_13_6414" x1="89.5199" y1="113.091" x2="23.376" y2="-62.8823" gradientUnits="userSpaceOnUse">
<stop stop-color="#97C3F9"/>
<stop offset="1" stop-color="#93C1F9"/>
</linearGradient>
<linearGradient id="paint18_linear_13_6414" x1="28.169" y1="136.151" x2="-37.9751" y2="-39.822" gradientUnits="userSpaceOnUse">
<stop/>
<stop offset="1" stop-color="white"/>
</linearGradient>
<linearGradient id="paint19_linear_13_6414" x1="28.169" y1="136.151" x2="-37.9751" y2="-39.822" gradientUnits="userSpaceOnUse">
<stop stop-color="#97C3F9"/>
<stop offset="1" stop-color="#93C1F9"/>
</linearGradient>
<linearGradient id="paint20_linear_13_6414" x1="54.3733" y1="126.302" x2="-11.7708" y2="-49.6716" gradientUnits="userSpaceOnUse">
<stop/>
<stop offset="1" stop-color="white"/>
</linearGradient>
<linearGradient id="paint21_linear_13_6414" x1="54.3733" y1="126.302" x2="-11.7708" y2="-49.6716" gradientUnits="userSpaceOnUse">
<stop stop-color="#97C3F9"/>
<stop offset="1" stop-color="#93C1F9"/>
</linearGradient>
<linearGradient id="paint22_linear_13_6414" x1="80.5775" y1="116.452" x2="14.4336" y2="-59.5211" gradientUnits="userSpaceOnUse">
<stop/>
<stop offset="1" stop-color="white"/>
</linearGradient>
<linearGradient id="paint23_linear_13_6414" x1="80.5775" y1="116.452" x2="14.4336" y2="-59.5211" gradientUnits="userSpaceOnUse">
<stop stop-color="#97C3F9"/>
<stop offset="1" stop-color="#93C1F9"/>
</linearGradient>
<linearGradient id="paint24_linear_13_6414" x1="19.2266" y1="139.512" x2="-46.9175" y2="-36.4609" gradientUnits="userSpaceOnUse">
<stop/>
<stop offset="1" stop-color="white"/>
</linearGradient>
<linearGradient id="paint25_linear_13_6414" x1="19.2266" y1="139.512" x2="-46.9175" y2="-36.4609" gradientUnits="userSpaceOnUse">
<stop stop-color="#97C3F9"/>
<stop offset="1" stop-color="#93C1F9"/>
</linearGradient>
<linearGradient id="paint26_linear_13_6414" x1="45.4309" y1="129.663" x2="-20.7131" y2="-46.3104" gradientUnits="userSpaceOnUse">
<stop/>
<stop offset="1" stop-color="white"/>
</linearGradient>
<linearGradient id="paint27_linear_13_6414" x1="45.4309" y1="129.663" x2="-20.7131" y2="-46.3104" gradientUnits="userSpaceOnUse">
<stop stop-color="#97C3F9"/>
<stop offset="1" stop-color="#93C1F9"/>
</linearGradient>
<linearGradient id="paint28_linear_13_6414" x1="71.6352" y1="119.813" x2="5.49121" y2="-56.1598" gradientUnits="userSpaceOnUse">
<stop/>
<stop offset="1" stop-color="white"/>
</linearGradient>
<linearGradient id="paint29_linear_13_6414" x1="71.6352" y1="119.813" x2="5.49121" y2="-56.1598" gradientUnits="userSpaceOnUse">
<stop stop-color="#97C3F9"/>
<stop offset="1" stop-color="#93C1F9"/>
</linearGradient>
</defs>
</svg>
