<svg width="132" height="75" viewBox="0 0 132 75" fill="none" xmlns="http://www.w3.org/2000/svg">
<g opacity="0.26">
<mask id="mask0_13_7733" style="mask-type:alpha" maskUnits="userSpaceOnUse" x="0" y="0" width="11" height="10">
<path d="M5.22838 9.9773C8.11594 9.9773 10.4568 7.74377 10.4568 4.98862C10.4568 2.23347 8.11594 0 5.22838 0C2.34082 0 0 2.23347 0 4.98862C0 7.74377 2.34082 9.9773 5.22838 9.9773Z" fill="url(#paint0_linear_13_7733)"/>
</mask>
<g mask="url(#mask0_13_7733)">
<path d="M5.22838 9.9773C8.11594 9.9773 10.4568 7.74377 10.4568 4.98862C10.4568 2.23347 8.11594 0 5.22838 0C2.34082 0 0 2.23347 0 4.98862C0 7.74377 2.34082 9.9773 5.22838 9.9773Z" fill="url(#paint1_linear_13_7733)"/>
</g>
<mask id="mask1_13_7733" style="mask-type:alpha" maskUnits="userSpaceOnUse" x="30" y="0" width="11" height="10">
<path d="M35.5094 9.9773C38.397 9.9773 40.7378 7.74377 40.7378 4.98862C40.7378 2.23347 38.397 0 35.5094 0C32.6218 0 30.281 2.23347 30.281 4.98862C30.281 7.74377 32.6218 9.9773 35.5094 9.9773Z" fill="url(#paint2_linear_13_7733)"/>
</mask>
<g mask="url(#mask1_13_7733)">
<path d="M35.5094 9.9773C38.397 9.9773 40.7378 7.74377 40.7378 4.98862C40.7378 2.23347 38.397 0 35.5094 0C32.6218 0 30.281 2.23347 30.281 4.98862C30.281 7.74377 32.6218 9.9773 35.5094 9.9773Z" fill="url(#paint3_linear_13_7733)"/>
</g>
<mask id="mask2_13_7733" style="mask-type:alpha" maskUnits="userSpaceOnUse" x="60" y="0" width="12" height="10">
<path d="M65.7904 9.9773C68.678 9.9773 71.0188 7.74377 71.0188 4.98862C71.0188 2.23347 68.678 0 65.7904 0C62.9028 0 60.562 2.23347 60.562 4.98862C60.562 7.74377 62.9028 9.9773 65.7904 9.9773Z" fill="url(#paint4_linear_13_7733)"/>
</mask>
<g mask="url(#mask2_13_7733)">
<path d="M65.7904 9.9773C68.678 9.9773 71.0188 7.74377 71.0188 4.98862C71.0188 2.23347 68.678 0 65.7904 0C62.9028 0 60.562 2.23347 60.562 4.98862C60.562 7.74377 62.9028 9.9773 65.7904 9.9773Z" fill="url(#paint5_linear_13_7733)"/>
</g>
<mask id="mask3_13_7733" style="mask-type:alpha" maskUnits="userSpaceOnUse" x="90" y="0" width="12" height="10">
<path d="M96.0717 9.9773C98.9592 9.9773 101.3 7.74377 101.3 4.98862C101.3 2.23347 98.9592 0 96.0717 0C93.1841 0 90.8433 2.23347 90.8433 4.98862C90.8433 7.74377 93.1841 9.9773 96.0717 9.9773Z" fill="url(#paint6_linear_13_7733)"/>
</mask>
<g mask="url(#mask3_13_7733)">
<path d="M96.0717 9.9773C98.9592 9.9773 101.3 7.74377 101.3 4.98862C101.3 2.23347 98.9592 0 96.0717 0C93.1841 0 90.8433 2.23347 90.8433 4.98862C90.8433 7.74377 93.1841 9.9773 96.0717 9.9773Z" fill="url(#paint7_linear_13_7733)"/>
</g>
<mask id="mask4_13_7733" style="mask-type:alpha" maskUnits="userSpaceOnUse" x="121" y="0" width="11" height="10">
<path d="M126.353 9.9773C129.24 9.9773 131.581 7.74377 131.581 4.98862C131.581 2.23347 129.24 0 126.353 0C123.465 0 121.124 2.23347 121.124 4.98862C121.124 7.74377 123.465 9.9773 126.353 9.9773Z" fill="url(#paint8_linear_13_7733)"/>
</mask>
<g mask="url(#mask4_13_7733)">
<path d="M126.353 9.9773C129.24 9.9773 131.581 7.74377 131.581 4.98862C131.581 2.23347 129.24 0 126.353 0C123.465 0 121.124 2.23347 121.124 4.98862C121.124 7.74377 123.465 9.9773 126.353 9.9773Z" fill="url(#paint9_linear_13_7733)"/>
</g>
<mask id="mask5_13_7733" style="mask-type:alpha" maskUnits="userSpaceOnUse" x="0" y="25" width="11" height="11">
<path d="M5.22838 35.0243C8.11594 35.0243 10.4568 32.7909 10.4568 30.0357C10.4568 27.2806 8.11594 25.0471 5.22838 25.0471C2.34082 25.0471 0 27.2806 0 30.0357C0 32.7909 2.34082 35.0243 5.22838 35.0243Z" fill="url(#paint10_linear_13_7733)"/>
</mask>
<g mask="url(#mask5_13_7733)">
<path d="M5.22838 35.0243C8.11594 35.0243 10.4568 32.7909 10.4568 30.0357C10.4568 27.2806 8.11594 25.0471 5.22838 25.0471C2.34082 25.0471 0 27.2806 0 30.0357C0 32.7909 2.34082 35.0243 5.22838 35.0243Z" fill="url(#paint11_linear_13_7733)"/>
</g>
<mask id="mask6_13_7733" style="mask-type:alpha" maskUnits="userSpaceOnUse" x="30" y="25" width="11" height="11">
<path d="M35.5094 35.0243C38.397 35.0243 40.7378 32.7909 40.7378 30.0357C40.7378 27.2806 38.397 25.0471 35.5094 25.0471C32.6218 25.0471 30.281 27.2806 30.281 30.0357C30.281 32.7909 32.6218 35.0243 35.5094 35.0243Z" fill="url(#paint12_linear_13_7733)"/>
</mask>
<g mask="url(#mask6_13_7733)">
<path d="M35.5094 35.0243C38.397 35.0243 40.7378 32.7909 40.7378 30.0357C40.7378 27.2806 38.397 25.0471 35.5094 25.0471C32.6218 25.0471 30.281 27.2806 30.281 30.0357C30.281 32.7909 32.6218 35.0243 35.5094 35.0243Z" fill="url(#paint13_linear_13_7733)"/>
</g>
<mask id="mask7_13_7733" style="mask-type:alpha" maskUnits="userSpaceOnUse" x="60" y="25" width="12" height="11">
<path d="M65.7904 35.0243C68.678 35.0243 71.0188 32.7909 71.0188 30.0357C71.0188 27.2806 68.678 25.0471 65.7904 25.0471C62.9028 25.0471 60.562 27.2806 60.562 30.0357C60.562 32.7909 62.9028 35.0243 65.7904 35.0243Z" fill="url(#paint14_linear_13_7733)"/>
</mask>
<g mask="url(#mask7_13_7733)">
<path d="M65.7904 35.0243C68.678 35.0243 71.0188 32.7909 71.0188 30.0357C71.0188 27.2806 68.678 25.0471 65.7904 25.0471C62.9028 25.0471 60.562 27.2806 60.562 30.0357C60.562 32.7909 62.9028 35.0243 65.7904 35.0243Z" fill="url(#paint15_linear_13_7733)"/>
</g>
<mask id="mask8_13_7733" style="mask-type:alpha" maskUnits="userSpaceOnUse" x="90" y="25" width="12" height="11">
<path d="M96.0717 35.0243C98.9592 35.0243 101.3 32.7909 101.3 30.0357C101.3 27.2806 98.9592 25.0471 96.0717 25.0471C93.1841 25.0471 90.8433 27.2806 90.8433 30.0357C90.8433 32.7909 93.1841 35.0243 96.0717 35.0243Z" fill="url(#paint16_linear_13_7733)"/>
</mask>
<g mask="url(#mask8_13_7733)">
<path d="M96.0717 35.0243C98.9592 35.0243 101.3 32.7909 101.3 30.0357C101.3 27.2806 98.9592 25.0471 96.0717 25.0471C93.1841 25.0471 90.8433 27.2806 90.8433 30.0357C90.8433 32.7909 93.1841 35.0243 96.0717 35.0243Z" fill="url(#paint17_linear_13_7733)"/>
</g>
<mask id="mask9_13_7733" style="mask-type:alpha" maskUnits="userSpaceOnUse" x="121" y="25" width="11" height="11">
<path d="M126.353 35.0243C129.24 35.0243 131.581 32.7909 131.581 30.0357C131.581 27.2806 129.24 25.0471 126.353 25.0471C123.465 25.0471 121.124 27.2806 121.124 30.0357C121.124 32.7909 123.465 35.0243 126.353 35.0243Z" fill="url(#paint18_linear_13_7733)"/>
</mask>
<g mask="url(#mask9_13_7733)">
<path d="M126.353 35.0243C129.24 35.0243 131.581 32.7909 131.581 30.0357C131.581 27.2806 129.24 25.0471 126.353 25.0471C123.465 25.0471 121.124 27.2806 121.124 30.0357C121.124 32.7909 123.465 35.0243 126.353 35.0243Z" fill="url(#paint19_linear_13_7733)"/>
</g>
<mask id="mask10_13_7733" style="mask-type:alpha" maskUnits="userSpaceOnUse" x="0" y="50" width="11" height="11">
<path d="M5.22838 60.0195C8.11594 60.0195 10.4568 57.7861 10.4568 55.0309C10.4568 52.2757 8.11594 50.0422 5.22838 50.0422C2.34082 50.0422 0 52.2757 0 55.0309C0 57.7861 2.34082 60.0195 5.22838 60.0195Z" fill="url(#paint20_linear_13_7733)"/>
</mask>
<g mask="url(#mask10_13_7733)">
<path d="M5.22838 60.0195C8.11594 60.0195 10.4568 57.7861 10.4568 55.0309C10.4568 52.2757 8.11594 50.0422 5.22838 50.0422C2.34082 50.0422 0 52.2757 0 55.0309C0 57.7861 2.34082 60.0195 5.22838 60.0195Z" fill="url(#paint21_linear_13_7733)"/>
</g>
<mask id="mask11_13_7733" style="mask-type:alpha" maskUnits="userSpaceOnUse" x="30" y="50" width="11" height="11">
<path d="M35.5094 60.0195C38.397 60.0195 40.7378 57.7861 40.7378 55.0309C40.7378 52.2757 38.397 50.0422 35.5094 50.0422C32.6218 50.0422 30.281 52.2757 30.281 55.0309C30.281 57.7861 32.6218 60.0195 35.5094 60.0195Z" fill="url(#paint22_linear_13_7733)"/>
</mask>
<g mask="url(#mask11_13_7733)">
<path d="M35.5094 60.0195C38.397 60.0195 40.7378 57.7861 40.7378 55.0309C40.7378 52.2757 38.397 50.0422 35.5094 50.0422C32.6218 50.0422 30.281 52.2757 30.281 55.0309C30.281 57.7861 32.6218 60.0195 35.5094 60.0195Z" fill="url(#paint23_linear_13_7733)"/>
</g>
<mask id="mask12_13_7733" style="mask-type:alpha" maskUnits="userSpaceOnUse" x="60" y="50" width="12" height="11">
<path d="M65.7904 60.0195C68.678 60.0195 71.0188 57.7861 71.0188 55.0309C71.0188 52.2757 68.678 50.0422 65.7904 50.0422C62.9028 50.0422 60.562 52.2757 60.562 55.0309C60.562 57.7861 62.9028 60.0195 65.7904 60.0195Z" fill="url(#paint24_linear_13_7733)"/>
</mask>
<g mask="url(#mask12_13_7733)">
<path d="M65.7904 60.0195C68.678 60.0195 71.0188 57.7861 71.0188 55.0309C71.0188 52.2757 68.678 50.0422 65.7904 50.0422C62.9028 50.0422 60.562 52.2757 60.562 55.0309C60.562 57.7861 62.9028 60.0195 65.7904 60.0195Z" fill="url(#paint25_linear_13_7733)"/>
</g>
<mask id="mask13_13_7733" style="mask-type:alpha" maskUnits="userSpaceOnUse" x="90" y="50" width="12" height="11">
<path d="M96.0717 60.0195C98.9592 60.0195 101.3 57.7861 101.3 55.0309C101.3 52.2757 98.9592 50.0422 96.0717 50.0422C93.1841 50.0422 90.8433 52.2757 90.8433 55.0309C90.8433 57.7861 93.1841 60.0195 96.0717 60.0195Z" fill="url(#paint26_linear_13_7733)"/>
</mask>
<g mask="url(#mask13_13_7733)">
<path d="M96.0717 60.0195C98.9592 60.0195 101.3 57.7861 101.3 55.0309C101.3 52.2757 98.9592 50.0422 96.0717 50.0422C93.1841 50.0422 90.8433 52.2757 90.8433 55.0309C90.8433 57.7861 93.1841 60.0195 96.0717 60.0195Z" fill="url(#paint27_linear_13_7733)"/>
</g>
<mask id="mask14_13_7733" style="mask-type:alpha" maskUnits="userSpaceOnUse" x="121" y="50" width="11" height="11">
<path d="M126.353 60.0195C129.24 60.0195 131.581 57.7861 131.581 55.0309C131.581 52.2757 129.24 50.0422 126.353 50.0422C123.465 50.0422 121.124 52.2757 121.124 55.0309C121.124 57.7861 123.465 60.0195 126.353 60.0195Z" fill="url(#paint28_linear_13_7733)"/>
</mask>
<g mask="url(#mask14_13_7733)">
<path d="M126.353 60.0195C129.24 60.0195 131.581 57.7861 131.581 55.0309C131.581 52.2757 129.24 50.0422 126.353 50.0422C123.465 50.0422 121.124 52.2757 121.124 55.0309C121.124 57.7861 123.465 60.0195 126.353 60.0195Z" fill="url(#paint29_linear_13_7733)"/>
</g>
</g>
<defs>
<linearGradient id="paint0_linear_13_7733" x1="54.996" y1="125.503" x2="-11.1481" y2="-50.4704" gradientUnits="userSpaceOnUse">
<stop stop-color="white"/>
<stop offset="1" stop-color="white"/>
</linearGradient>
<linearGradient id="paint1_linear_13_7733" x1="54.996" y1="125.503" x2="-11.1481" y2="-50.4704" gradientUnits="userSpaceOnUse">
<stop stop-color="white"/>
<stop offset="1" stop-color="white"/>
</linearGradient>
<linearGradient id="paint2_linear_13_7733" x1="85.2771" y1="125.503" x2="19.133" y2="-50.4704" gradientUnits="userSpaceOnUse">
<stop stop-color="white"/>
<stop offset="1" stop-color="white"/>
</linearGradient>
<linearGradient id="paint3_linear_13_7733" x1="85.2771" y1="125.503" x2="19.133" y2="-50.4704" gradientUnits="userSpaceOnUse">
<stop stop-color="white"/>
<stop offset="1" stop-color="white"/>
</linearGradient>
<linearGradient id="paint4_linear_13_7733" x1="115.558" y1="125.503" x2="49.414" y2="-50.4704" gradientUnits="userSpaceOnUse">
<stop stop-color="white"/>
<stop offset="1" stop-color="white"/>
</linearGradient>
<linearGradient id="paint5_linear_13_7733" x1="115.558" y1="125.503" x2="49.414" y2="-50.4704" gradientUnits="userSpaceOnUse">
<stop stop-color="white"/>
<stop offset="1" stop-color="white"/>
</linearGradient>
<linearGradient id="paint6_linear_13_7733" x1="145.839" y1="125.503" x2="79.6953" y2="-50.4704" gradientUnits="userSpaceOnUse">
<stop stop-color="white"/>
<stop offset="1" stop-color="white"/>
</linearGradient>
<linearGradient id="paint7_linear_13_7733" x1="145.839" y1="125.503" x2="79.6953" y2="-50.4704" gradientUnits="userSpaceOnUse">
<stop stop-color="white"/>
<stop offset="1" stop-color="white"/>
</linearGradient>
<linearGradient id="paint8_linear_13_7733" x1="176.12" y1="125.503" x2="109.976" y2="-50.4704" gradientUnits="userSpaceOnUse">
<stop stop-color="white"/>
<stop offset="1" stop-color="white"/>
</linearGradient>
<linearGradient id="paint9_linear_13_7733" x1="176.12" y1="125.503" x2="109.976" y2="-50.4704" gradientUnits="userSpaceOnUse">
<stop stop-color="white"/>
<stop offset="1" stop-color="white"/>
</linearGradient>
<linearGradient id="paint10_linear_13_7733" x1="54.996" y1="150.549" x2="-11.1469" y2="-25.4232" gradientUnits="userSpaceOnUse">
<stop stop-color="white"/>
<stop offset="1" stop-color="white"/>
</linearGradient>
<linearGradient id="paint11_linear_13_7733" x1="54.996" y1="150.549" x2="-11.1469" y2="-25.4232" gradientUnits="userSpaceOnUse">
<stop stop-color="white"/>
<stop offset="1" stop-color="white"/>
</linearGradient>
<linearGradient id="paint12_linear_13_7733" x1="85.2771" y1="150.549" x2="19.1342" y2="-25.4233" gradientUnits="userSpaceOnUse">
<stop stop-color="white"/>
<stop offset="1" stop-color="white"/>
</linearGradient>
<linearGradient id="paint13_linear_13_7733" x1="85.2771" y1="150.549" x2="19.1342" y2="-25.4233" gradientUnits="userSpaceOnUse">
<stop stop-color="white"/>
<stop offset="1" stop-color="white"/>
</linearGradient>
<linearGradient id="paint14_linear_13_7733" x1="115.558" y1="150.549" x2="49.4152" y2="-25.4233" gradientUnits="userSpaceOnUse">
<stop stop-color="white"/>
<stop offset="1" stop-color="white"/>
</linearGradient>
<linearGradient id="paint15_linear_13_7733" x1="115.558" y1="150.549" x2="49.4152" y2="-25.4233" gradientUnits="userSpaceOnUse">
<stop stop-color="white"/>
<stop offset="1" stop-color="white"/>
</linearGradient>
<linearGradient id="paint16_linear_13_7733" x1="145.839" y1="150.549" x2="79.6964" y2="-25.4233" gradientUnits="userSpaceOnUse">
<stop stop-color="white"/>
<stop offset="1" stop-color="white"/>
</linearGradient>
<linearGradient id="paint17_linear_13_7733" x1="145.839" y1="150.549" x2="79.6964" y2="-25.4233" gradientUnits="userSpaceOnUse">
<stop stop-color="white"/>
<stop offset="1" stop-color="white"/>
</linearGradient>
<linearGradient id="paint18_linear_13_7733" x1="176.12" y1="150.549" x2="109.977" y2="-25.4233" gradientUnits="userSpaceOnUse">
<stop stop-color="white"/>
<stop offset="1" stop-color="white"/>
</linearGradient>
<linearGradient id="paint19_linear_13_7733" x1="176.12" y1="150.549" x2="109.977" y2="-25.4233" gradientUnits="userSpaceOnUse">
<stop stop-color="white"/>
<stop offset="1" stop-color="white"/>
</linearGradient>
<linearGradient id="paint20_linear_13_7733" x1="54.996" y1="175.545" x2="-11.1481" y2="-0.428153" gradientUnits="userSpaceOnUse">
<stop stop-color="white"/>
<stop offset="1" stop-color="white"/>
</linearGradient>
<linearGradient id="paint21_linear_13_7733" x1="54.996" y1="175.545" x2="-11.1481" y2="-0.428153" gradientUnits="userSpaceOnUse">
<stop stop-color="white"/>
<stop offset="1" stop-color="white"/>
</linearGradient>
<linearGradient id="paint22_linear_13_7733" x1="85.2771" y1="175.545" x2="19.133" y2="-0.428204" gradientUnits="userSpaceOnUse">
<stop stop-color="white"/>
<stop offset="1" stop-color="white"/>
</linearGradient>
<linearGradient id="paint23_linear_13_7733" x1="85.2771" y1="175.545" x2="19.133" y2="-0.428204" gradientUnits="userSpaceOnUse">
<stop stop-color="white"/>
<stop offset="1" stop-color="white"/>
</linearGradient>
<linearGradient id="paint24_linear_13_7733" x1="115.558" y1="175.545" x2="49.414" y2="-0.428204" gradientUnits="userSpaceOnUse">
<stop stop-color="white"/>
<stop offset="1" stop-color="white"/>
</linearGradient>
<linearGradient id="paint25_linear_13_7733" x1="115.558" y1="175.545" x2="49.414" y2="-0.428204" gradientUnits="userSpaceOnUse">
<stop stop-color="white"/>
<stop offset="1" stop-color="white"/>
</linearGradient>
<linearGradient id="paint26_linear_13_7733" x1="145.839" y1="175.545" x2="79.6953" y2="-0.428204" gradientUnits="userSpaceOnUse">
<stop stop-color="white"/>
<stop offset="1" stop-color="white"/>
</linearGradient>
<linearGradient id="paint27_linear_13_7733" x1="145.839" y1="175.545" x2="79.6953" y2="-0.428204" gradientUnits="userSpaceOnUse">
<stop stop-color="white"/>
<stop offset="1" stop-color="white"/>
</linearGradient>
<linearGradient id="paint28_linear_13_7733" x1="176.12" y1="175.545" x2="109.976" y2="-0.428204" gradientUnits="userSpaceOnUse">
<stop stop-color="white"/>
<stop offset="1" stop-color="white"/>
</linearGradient>
<linearGradient id="paint29_linear_13_7733" x1="176.12" y1="175.545" x2="109.976" y2="-0.428204" gradientUnits="userSpaceOnUse">
<stop stop-color="white"/>
<stop offset="1" stop-color="white"/>
</linearGradient>
</defs>
</svg>
